<?xml version="1.0" encoding="utf-8"?>
<!-- Generator: Adobe Illustrator 24.0.0, SVG Export Plug-In . SVG Version: 6.00 Build 0)  -->
<svg version="1.1" id="Livello_1" xmlns="http://www.w3.org/2000/svg" xmlns:xlink="http://www.w3.org/1999/xlink" x="0px" y="0px"
	 viewBox="0 0 1000 1000" style="enable-background:new 0 0 1000 1000;" xml:space="preserve">
<style type="text/css">
	.st0{fill:#FFFFFF;}
</style>
<g>
	<path class="st0" d="M161.75,538.24c0.32,0.33,0.7,0.31,1.08,0.28c1.39-0.11,2.71-0.51,3.99-1.05c2.74-1.16,5.43-2.42,7.73-4.37
		c2.62-2.22,4.58-4.97,6.25-7.93c2.41-4.27,4.23-8.8,5.91-13.38c2.65-7.22,4.95-14.55,7.2-21.9c3.92-12.77,7.81-25.54,11.72-38.31
		c0.04-0.13,0.07-0.26,0.13-0.47c-0.21,0-0.39,0-0.56,0c-4.45,0-8.9,0-13.35,0c-1.39,0-2.06-0.5-2.34-1.85
		c-0.27-1.28-0.22-2.57,0.21-3.82c0.41-1.21,1.19-1.76,2.46-1.76c5.32,0,10.63-0.01,15.95,0.01c0.4,0,0.57-0.12,0.69-0.5
		c2.43-7.33,5.63-14.3,9.95-20.73c3.7-5.5,8.05-10.38,13.44-14.29c4.59-3.32,9.61-5.66,15.22-6.63c5.22-0.9,10.34-0.68,15.26,1.51
		c2.42,1.08,4.54,2.57,6.17,4.69c1.58,2.07,2.38,4.41,2.35,7.03c-0.04,2.97-0.72,5.75-2.52,8.16c-2.43,3.26-5.75,4.52-9.74,4.12
		c-1.76-0.17-3.42-0.66-4.96-1.54c-3.74-2.14-4.96-5.74-3.3-9.73c0.73-1.77,1.88-3.25,3.21-4.6c1.24-1.25,2.49-2.49,3.74-3.74
		c0.34-0.34,0.37-0.54-0.04-0.79c-0.52-0.32-1.09-0.59-1.68-0.79c-3.72-1.25-6.71-0.01-9.23,2.76c-1.75,1.93-3,4.19-4.1,6.53
		c-2.08,4.4-3.61,9-5.1,13.62c-1.54,4.81-3.05,9.62-4.57,14.44c-0.04,0.13-0.06,0.26-0.11,0.45c0.2,0,0.36,0,0.52,0
		c3.57,0.01,7.14,0,10.71,0.04c1.36,0.02,2.73,0.15,4.09,0.22c0.12,0.01,0.24,0.01,0.36-0.01c0.61-0.08,1.22-0.24,1.83-0.25
		c5.13-0.02,10.27-0.02,15.4,0c0.41,0,0.57-0.12,0.69-0.5c2.44-7.36,5.66-14.36,10-20.8c3.76-5.58,8.2-10.53,13.72-14.45
		c4.49-3.18,9.39-5.44,14.84-6.38c5.06-0.88,10.04-0.7,14.84,1.31c2.43,1.01,4.59,2.43,6.28,4.47c1.77,2.13,2.7,4.57,2.68,7.36
		c-0.02,2.76-0.6,5.37-2.14,7.69c-2.16,3.25-5.21,4.85-9.13,4.73c-2.37-0.07-4.58-0.67-6.57-1.99c-3-2-4.07-5.06-2.98-8.49
		c0.67-2.09,1.91-3.81,3.43-5.35c1.27-1.29,2.54-2.57,3.84-3.83c0.33-0.32,0.27-0.58-0.05-0.77c-0.55-0.31-1.12-0.61-1.72-0.81
		c-3.72-1.25-6.71,0-9.22,2.78c-1.79,1.98-3.06,4.29-4.18,6.69c-2.1,4.49-3.64,9.19-5.15,13.89c-1.49,4.63-2.94,9.28-4.4,13.92
		c-0.05,0.15-0.08,0.31-0.14,0.52c0.22,0,0.38,0,0.55,0c3.57,0.01,7.14-0.01,10.71,0.05c1.62,0.03,3.24,0.21,4.85,0.34
		c0.18,0.01,0.36,0.07,0.53,0.12c0.72,0.23,0.85,0.47,0.75,1.21c-0.19,1.33-0.46,2.63-1.02,3.85c-0.15,0.32-0.32,0.62-0.52,0.91
		c-0.44,0.65-1.04,0.95-1.85,0.95c-5.1-0.02-10.21,0-15.31-0.02c-0.54,0-0.75,0.17-0.92,0.66c-3.15,9.14-6.44,18.24-9.98,27.24
		c-3.4,8.65-7.03,17.21-11.19,25.52c-2.96,5.91-6.18,11.66-9.95,17.09c-2.57,3.7-5.37,7.2-8.59,10.37
		c-4.74,4.68-10.13,8.35-16.51,10.43c-4.46,1.46-9.04,2.12-13.72,1.96c-3.99-0.14-7.23-1.95-9.75-4.99
		c-2.97-3.6-3.95-7.71-2.71-12.24c1.14-4.18,4.54-6.86,8.86-7.18c2.17-0.16,4.21,0.15,6.06,1.34c2.21,1.43,3.33,3.52,3.68,6.1
		c0.28,2.12-0.55,3.93-1.49,5.71c-0.98,1.84-2.13,3.56-3.52,5.15c0.29,0.35,0.68,0.35,1.04,0.28c0.94-0.17,1.9-0.29,2.79-0.61
		c3.37-1.21,6.59-2.72,9.31-5.12c2.54-2.24,4.43-4.98,6.06-7.92c2.49-4.5,4.37-9.27,6.11-14.09c3.16-8.76,5.86-17.67,8.58-26.57
		c3.33-10.87,6.64-21.75,9.97-32.62c0.04-0.14,0.08-0.28,0.14-0.49c-0.23,0-0.4,0-0.58,0c-4.42,0-8.84,0.01-13.26-0.01
		c-0.45,0-0.89-0.13-1.34-0.2c-0.1-0.01-0.2-0.02-0.3,0c-0.4,0.06-0.8,0.2-1.19,0.2c-5.12,0.01-10.24,0.01-15.36,0
		c-0.41,0-0.57,0.14-0.7,0.51c-4.42,12.73-9.02,25.4-14.3,37.8c-3.64,8.56-7.57,16.98-12.3,25c-3.22,5.46-6.78,10.69-11.08,15.38
		c-3.7,4.04-7.83,7.53-12.69,10.1c-4.13,2.19-8.52,3.6-13.17,4.12c-2.03,0.23-4.09,0.36-6.13,0.36c-3.44,0-6.37-1.36-8.86-3.68
		c-2.45-2.29-3.98-5.1-4.34-8.44c-0.4-3.75,0.4-7.17,3.29-9.84c1.52-1.4,3.37-2.14,5.4-2.4c2.27-0.29,4.46-0.04,6.45,1.17
		c2.29,1.4,3.48,3.51,3.85,6.14c0.28,2.02-0.43,3.76-1.33,5.47C164.42,534.73,163.22,536.55,161.75,538.24z"/>
</g>
<g>
	<path class="st0" d="M351.39,461.22h-5.76v-45.99h28.17v5.05h-22.4v14.52h18.56v4.65h-18.56V461.22z"/>
	<path class="st0" d="M427.55,461.22h-6.04l-8.48-19.91h-13.18v19.91h-5.39v-45.99h18.13c4.92,0,8.56,1.34,10.93,4.03
		c2.37,2.68,3.55,5.62,3.55,8.81c0,2.45-0.66,4.8-1.99,7.04c-1.33,2.25-3.52,3.85-6.57,4.82L427.55,461.22z M399.85,436.63h12.03
		c3.17,0,5.53-0.84,7.09-2.51s2.34-3.72,2.34-6.15s-0.83-4.31-2.48-5.66c-1.65-1.35-3.73-2.02-6.25-2.02h-12.74V436.63z"/>
	<path class="st0" d="M481.52,461.22h-5.88l-4.62-13.44h-17.07l-4.11,13.44h-4.82l14.94-45.99h6.52L481.52,461.22z M469.78,443.47
		l-7.13-22.1l-7.11,22.1H469.78z"/>
	<path class="st0" d="M535.17,461.22h-5.59l-23.79-40.09l0.07,3.03c0.07,1.15,0.1,2.11,0.1,2.9v34.16h-4.65v-45.99h7.21l22.24,37.48
		l-0.07-3.2c-0.04-1.26-0.07-2.37-0.07-3.33v-30.95h4.55V461.22z"/>
	<path class="st0" d="M588.01,445.76l5.26,1.18c-2.52,10.15-8.2,15.23-17.05,15.23c-5.82,0-10.38-2.35-13.7-7.05
		c-3.31-4.7-4.97-10.47-4.97-17.33c0-7.08,1.73-12.77,5.19-17.06c3.46-4.29,8.1-6.44,13.91-6.44c8.63,0,14.16,4.93,16.61,14.79
		l-5.42,1.08c-1.98-7.32-5.72-10.98-11.22-10.98c-4.07,0-7.22,1.7-9.45,5.1c-2.23,3.4-3.35,8.18-3.35,14.34
		c0,5.64,1.15,10.16,3.44,13.56c2.29,3.4,5.32,5.1,9.1,5.1C582.22,457.28,586.1,453.44,588.01,445.76z"/>
	<path class="st0" d="M643.96,456.17v5.05h-29.75v-45.99h29.11v5.05h-23.35v14.62h18.53v4.68h-18.53v16.58H643.96z"/>
	<path class="st0" d="M660.76,449.06l5.19-1.18c2.09,6.27,6.61,9.4,13.58,9.4c3.64,0,6.38-0.77,8.22-2.32
		c1.84-1.54,2.76-3.61,2.76-6.2c0-1.96-0.7-3.54-2.1-4.73c-1.4-1.19-3.03-2.02-4.87-2.47l-9.2-2.27c-2.38-0.61-4.33-1.34-5.85-2.21
		c-1.52-0.87-2.8-2.2-3.86-4s-1.58-3.86-1.58-6.17c0-3.85,1.45-6.91,4.35-9.19s6.62-3.42,11.15-3.42c8.36,0,13.85,3.79,16.47,11.35
		l-5.22,1.55c-0.61-2.7-2.03-4.73-4.28-6.12c-2.25-1.38-4.64-2.07-7.18-2.07c-2.52,0-4.76,0.67-6.72,2
		c-1.97,1.33-2.95,3.22-2.95,5.65c0,3.41,2.49,5.71,7.47,6.91l8.6,2.02c7.86,1.89,11.79,6.12,11.79,12.7c0,3.98-1.48,7.28-4.43,9.92
		c-2.95,2.64-7.11,3.96-12.48,3.96C670.1,462.17,663.81,457.8,660.76,449.06z"/>
	<path class="st0" d="M746.46,445.76l5.26,1.18c-2.52,10.15-8.2,15.23-17.05,15.23c-5.82,0-10.38-2.35-13.7-7.05
		c-3.31-4.7-4.97-10.47-4.97-17.33c0-7.08,1.73-12.77,5.19-17.06c3.46-4.29,8.1-6.44,13.91-6.44c8.63,0,14.16,4.93,16.61,14.79
		l-5.42,1.08c-1.98-7.32-5.72-10.98-11.22-10.98c-4.07,0-7.22,1.7-9.45,5.1c-2.24,3.4-3.35,8.18-3.35,14.34
		c0,5.64,1.14,10.16,3.44,13.56c2.29,3.4,5.32,5.1,9.1,5.1C740.66,457.28,744.55,453.44,746.46,445.76z"/>
	<path class="st0" d="M788.52,462.17c-5.91,0-10.51-2.3-13.81-6.89c-3.3-4.6-4.95-10.23-4.95-16.91c0-6.97,1.73-12.72,5.19-17.26
		c3.46-4.54,8.04-6.81,13.75-6.81c5.68,0,10.24,2.23,13.68,6.69c3.44,4.46,5.16,10.09,5.16,16.87c0,6.52-1.67,12.2-5,17.04
		C799.19,459.75,794.52,462.17,788.52,462.17z M788.66,457.48c4.02,0,7.17-1.83,9.43-5.5c2.27-3.66,3.4-8.38,3.4-14.16
		c0-5.93-1.17-10.55-3.52-13.86s-5.46-4.96-9.35-4.96c-3.93,0-7.05,1.79-9.37,5.36c-2.31,3.57-3.47,8.25-3.47,14.03
		c0,5.64,1.17,10.23,3.5,13.78C781.63,455.71,784.75,457.48,788.66,457.48z"/>
	<path class="st0" d="M344.46,481.57h28.87v8.34h-18.18v12.72h14.01v8.34h-14.01v19.25h-10.69V481.57z"/>
	<path class="st0" d="M391.39,481.57h10.69v48.65h-10.69V481.57z"/>
	<path class="st0" d="M459.46,505.88c0,16.73-5.88,25.09-17.64,25.09c-5.85,0-10.25-2.13-13.22-6.4c-2.97-4.26-4.46-10.5-4.46-18.7
		c0-16.71,5.88-25.06,17.64-25.06c5.75,0,10.13,2.09,13.15,6.27C457.95,491.28,459.46,497.54,459.46,505.88z M448.19,505.88
		c0-6.56-0.51-10.93-1.53-13.1c-1.02-2.17-2.65-3.26-4.88-3.26c-2.21,0-3.83,1.09-4.85,3.28c-1.02,2.19-1.53,6.55-1.53,13.08
		c0,6.42,0.5,10.75,1.51,13.01c1.01,2.26,2.63,3.39,4.87,3.39c2.21,0,3.83-1.08,4.87-3.24
		C447.68,516.87,448.19,512.48,448.19,505.88z"/>
	<path class="st0" d="M481.51,481.57h15.29c2.97,0,5.24,0.14,6.83,0.41c1.58,0.27,3.18,1.01,4.79,2.21c1.62,1.2,2.88,2.84,3.8,4.92
		c0.92,2.08,1.37,4.41,1.37,7c0,6.08-2.28,10.36-6.84,12.83l8.95,21.28h-11.64l-6.51-19.25h-5.34v19.25h-10.69V481.57z
		 M492.2,489.45v13.65h4.71c4.18,0,6.27-2.34,6.27-7.02c0-1.62-0.31-2.94-0.93-3.97c-0.62-1.03-1.34-1.73-2.16-2.1
		c-0.82-0.37-2.03-0.55-3.62-0.55H492.2z"/>
	<path class="st0" d="M535.89,481.57h29.58v8.34h-18.89v11.3h14.69v8.34h-14.69v11.98h18.89v8.7h-29.58V481.57z"/>
	<path class="st0" d="M584.92,481.57h11.87l12.51,30.23v-30.23h8.27v48.65h-9.55l-14.83-35.22v35.22h-8.27V481.57z"/>
	<path class="st0" d="M635.48,481.57h30.33v9.13h-9.94v39.53h-10.69v-39.53h-9.7V481.57z"/>
	<path class="st0" d="M684.13,481.57h10.69v48.65h-10.69V481.57z"/>
	<path class="st0" d="M718.22,481.57h11.87l12.51,30.23v-30.23h8.27v48.65h-9.55l-14.83-35.22v35.22h-8.27V481.57z"/>
	<path class="st0" d="M807.82,505.88c0,16.73-5.88,25.09-17.64,25.09c-5.85,0-10.25-2.13-13.22-6.4c-2.97-4.26-4.46-10.5-4.46-18.7
		c0-16.71,5.88-25.06,17.64-25.06c5.75,0,10.13,2.09,13.15,6.27C806.31,491.28,807.82,497.54,807.82,505.88z M796.55,505.88
		c0-6.56-0.51-10.93-1.53-13.1c-1.02-2.17-2.65-3.26-4.88-3.26c-2.21,0-3.83,1.09-4.85,3.28c-1.02,2.19-1.53,6.55-1.53,13.08
		c0,6.42,0.5,10.75,1.51,13.01c1.01,2.26,2.63,3.39,4.87,3.39c2.21,0,3.83-1.08,4.87-3.24
		C796.04,516.87,796.55,512.48,796.55,505.88z"/>
</g>
</svg>
