<?xml version="1.0" encoding="utf-8"?>
<!-- Generator: Adobe Illustrator 24.0.0, SVG Export Plug-In . SVG Version: 6.00 Build 0)  -->
<svg version="1.1" id="Livello_1" xmlns="http://www.w3.org/2000/svg" xmlns:xlink="http://www.w3.org/1999/xlink" x="0px" y="0px"
	 viewBox="0 0 1000 1000" style="enable-background:new 0 0 1000 1000;" xml:space="preserve">
<style type="text/css">
	.st0{fill:#FFFFFF;}
</style>
<g>
	<path class="st0" d="M530.89,359.3c0-7.21,3.43-14.41,10.3-21.28l10.64-10.64c0-2.74-9.27-4.8-13.04-4.8
		c-25.4,1.03-35.69,47.02-53.19,100.9h13.38c28.14,0,32.6,0.69,32.6,3.43c0,0.69-1.72,16.13-8.24,16.13h-42.9
		c-60.4,174.33-103.64,245.72-183.26,245.72c-19.22,0-35.69-16.82-35.69-36.03c0-16.82,10.98-28.48,27.45-28.48
		c13.38,0,22.99,9.27,22.99,22.65c0,9.27-13.38,26.42-13.38,25.39c0,0.69,0.69,1.03,2.06,1.03c5.49,0,13.38-3.09,24.02-8.92
		c32.26-18.53,43.24-70.7,89.91-221.35h-37.4c-3.78,0-5.83-2.74-5.83-8.58c0-7.21,2.4-10.98,7.21-10.98h43.58
		c21.96-67.26,66.23-112.22,116.68-112.22c25.4,0,48.05,14.07,48.05,35.69c0,19.22-12.01,32.95-28.48,32.95
		C543.58,379.89,530.89,371.31,530.89,359.3z"/>
	<path class="st0" d="M682.57,359.3c0-7.21,3.43-14.41,10.29-21.28l10.64-10.64c0-2.74-9.27-4.8-13.04-4.8
		c-25.4,1.03-35.69,47.02-53.19,100.9h13.38c28.14,0,32.6,0.69,32.6,3.43c0,0.69-1.72,16.13-8.24,16.13h-42.9
		c-60.4,174.33-103.64,245.72-183.26,245.72c-19.22,0-35.69-16.82-35.69-36.03c0-16.82,10.98-28.48,27.45-28.48
		c13.38,0,22.99,9.27,22.99,22.65c0,9.27-13.38,26.42-13.38,25.39c0,0.69,0.69,1.03,2.06,1.03c5.49,0,13.38-3.09,24.02-8.92
		c32.26-18.53,43.24-70.7,89.91-221.35h-37.41c-3.78,0-5.83-2.74-5.83-8.58c0-7.21,2.4-10.98,7.21-10.98h43.58
		c21.96-67.26,66.23-112.22,116.68-112.22c25.4,0,48.04,14.07,48.04,35.69c0,19.22-12.01,32.95-28.48,32.95
		C695.27,379.89,682.57,371.31,682.57,359.3z"/>
</g>
<g>
</g>
<g>
</g>
<g>
</g>
<g>
</g>
<g>
</g>
<g>
</g>
</svg>
